M48
; DRILL file {KiCad (5.99.0-6751-g76ac8b5acf)} date 06/14/21 13:24:01
; FORMAT={-:-/ absolute / metric / decimal}
; #@! TF.CreationDate,2021-06-14T13:24:01+01:00
; #@! TF.GenerationSoftware,Kicad,Pcbnew,(5.99.0-6751-g76ac8b5acf)
FMAT,2
METRIC
T1C0.250
T2C0.650
T3C0.700
T4C0.800
T5C0.900
T6C1.000
T7C1.020
T8C1.700
T9C2.300
T10C1.100
T11C2.700
T12C3.200
%
G90
G05
T1
X81.5Y-72.5
X81.5Y-82.5
X81.5Y-95.0
X81.5Y-102.5
X81.5Y-115.0
X81.5Y-130.0
X81.5Y-142.5
X81.5Y-152.5
X84.8Y-88.2
X85.15Y-79.5
X85.25Y-77.8
X85.65Y-78.5
X86.35Y-78.5
X86.5Y-72.5
X86.5Y-157.5
X86.75Y-77.8
X86.75Y-79.5
X87.05Y-91.25
X87.05Y-97.25
X87.1Y-89.8
X87.1Y-92.7
X87.1Y-94.3
X87.1Y-95.7
X87.1Y-98.75
X87.5Y-88.1
X87.7Y-97.65
X87.7Y-98.35
X87.8Y-94.65
X87.8Y-95.35
X87.9Y-88.8
X87.9Y-90.0
X88.25Y-77.8
X88.3Y-79.4
X88.35Y-90.8
X88.45Y-94.1
X88.45Y-95.8
X88.45Y-98.8
X88.5Y-97.2
X88.65Y-78.6
X89.35Y-78.6
X89.4Y-96.15
X89.4Y-96.85
X89.75Y-77.8
X90.05Y-95.7
X90.05Y-97.2
X91.25Y-77.9
X91.4Y-103.4
X91.4Y-104.4
X91.9Y-103.9
X92.25Y-99.2
X92.75Y-77.8
X92.85Y-85.9
X92.9Y-87.5
X93.0Y-99.3
X93.0Y-122.5
X93.5Y-86.35
X93.5Y-87.05
X94.0Y-72.5
X94.0Y-96.975
X94.15Y-74.5
X94.15Y-85.9
X94.15Y-87.5
X94.2Y-99.4
X94.25Y-77.8
X94.95Y-99.5
X95.2Y-73.6
X95.5Y-74.6
X96.15Y-76.85
X96.25Y-74.9
X96.95Y-82.8
X96.95Y-86.3
X97.05Y-84.5
X97.55Y-97.175
X97.6Y-83.25
X97.6Y-83.95
X97.6Y-85.15
X97.6Y-85.85
X98.15Y-84.5
X98.25Y-82.8
X98.25Y-86.3
X98.45Y-147.812
X98.5Y-151.4
X99.2Y-113.7
X99.35Y-145.012
X99.45Y-115.25
X99.8Y-114.55
X101.5Y-148.1
X101.5Y-151.45
X101.5Y-157.5
X102.875Y-99.425
X103.0Y-90.7
X103.0Y-148.1
X103.0Y-151.45
X103.15Y-79.1
X103.25Y-77.85
X103.25Y-140.1
X103.498Y-89.68
X103.65Y-78.5
X104.0Y-72.5
X104.05Y-114.55
X104.35Y-78.5
X104.5Y-148.1
X104.5Y-151.45
X104.575Y-89.875
X104.75Y-77.845
X104.75Y-79.2
X104.75Y-80.6
X104.8Y-90.8
X105.15Y-79.9
X105.5Y-85.4
X105.8Y-111.2
X105.85Y-79.9
X106.0Y-148.1
X106.0Y-151.45
X106.3Y-77.845
X106.3Y-79.2
X106.35Y-80.5
X106.45Y-137.512
X106.65Y-78.5
X107.05Y-147.312
X107.285Y-123.415
X107.35Y-78.5
X107.75Y-77.845
X107.875Y-94.675
X108.15Y-78.8
X109.25Y-77.8
X109.855Y-118.345
X110.25Y-144.112
X110.35Y-133.912
X110.75Y-77.8
X111.4Y-117.2
X111.4Y-144.7
X112.15Y-116.71
X112.25Y-77.76
X112.25Y-79.8
X112.35Y-142.112
X112.4Y-90.0
X112.9Y-80.3
X112.95Y-131.412
X113.6Y-157.7
X113.9Y-89.7
X114.0Y-72.5
X114.25Y-76.85
X114.25Y-77.9
X114.3Y-78.7
X114.325Y-93.325
X114.75Y-89.5
X114.8Y-148.3
X114.9Y-151.6
X115.6Y-138.8
X115.8Y-157.562
X116.0Y-153.4
X117.45Y-72.9
X117.75Y-128.713
X118.75Y-135.812
X121.15Y-79.1
X121.2Y-80.345
X121.25Y-77.8
X121.5Y-72.5
X121.65Y-79.8
X121.75Y-146.612
X122.35Y-79.8
X122.75Y-77.8
X122.75Y-79.1
X122.75Y-80.5
X123.15Y-78.5
X123.45Y-143.412
X123.5Y-148.0
X123.5Y-151.4
X123.85Y-78.5
X124.25Y-77.8
X124.25Y-79.15
X124.25Y-80.5
X124.65Y-79.8
X124.75Y-128.612
X125.05Y-135.713
X125.35Y-79.8
X125.75Y-77.8
X125.75Y-79.1
X126.15Y-78.5
X126.15Y-79.9
X126.5Y-148.05
X126.5Y-151.35
X126.6Y-119.7
X126.85Y-78.5
X127.15Y-139.912
X127.25Y-77.8
X127.6Y-79.0
X128.0Y-148.05
X128.0Y-151.4
X128.05Y-72.55
X128.75Y-77.8
X129.4Y-78.25
X129.4Y-78.95
X129.5Y-148.05
X129.5Y-151.35
X129.95Y-128.612
X130.25Y-77.8
X130.45Y-74.4
X131.0Y-148.05
X131.0Y-151.35
X131.05Y-74.1
X131.19Y-74.85
X131.55Y-135.612
X131.95Y-143.912
X132.795Y-76.445
X134.5Y-142.5
X134.55Y-123.812
X134.95Y-141.012
X136.1Y-152.1
X136.1Y-155.4
X139.05Y-140.975
X141.1Y-117.175
X141.15Y-134.912
X142.35Y-137.725
X143.4Y-105.1
X143.45Y-105.85
X144.65Y-131.312
X146.2Y-89.8
X147.0Y-89.9
X148.6Y-89.91
X149.25Y-126.612
X149.4Y-137.2
X149.4Y-139.4
X150.2Y-89.8
X151.6Y-137.8
X152.75Y-157.25
X153.0Y-137.8
X153.4Y-93.2
X153.85Y-92.55
X154.05Y-130.112
X154.3Y-93.2
X154.65Y-121.312
X154.7Y-92.55
X154.85Y-115.312
X154.85Y-116.912
X155.1Y-93.2
X155.4Y-139.4
X155.468Y-137.293
X155.5Y-92.6
X155.658Y-75.745
X155.9Y-93.2
X156.45Y-132.812
X156.9Y-99.0
X157.4Y-99.65
X157.4Y-100.35
X157.5Y-85.6
X157.75Y-98.96
X157.8Y-101.0
X158.2Y-86.2
X158.4Y-97.85
X158.4Y-98.55
X158.9Y-89.1
X159.0Y-97.31
X159.1Y-124.962
X159.7Y-91.6
X159.7Y-94.0
X159.8Y-86.7
X159.8Y-103.63
X161.15Y-115.6
X161.2Y-85.59
X161.2Y-88.0
X161.2Y-90.4
X161.2Y-92.8
X161.2Y-95.2
X161.2Y-97.61
X161.2Y-98.8
X161.2Y-100.0
X161.2Y-101.2
X161.3Y-96.3
X161.353Y-93.747
X161.45Y-102.425
X161.65Y-127.712
X161.7Y-95.8
X161.7Y-116.2
X161.8Y-93.2
X161.9Y-96.65
X161.9Y-97.35
X162.2Y-86.7
X162.663Y-95.18
X162.9Y-89.2
X162.9Y-91.6
X162.9Y-97.6
X162.9Y-98.8
X162.9Y-99.99
X162.9Y-101.21
X162.9Y-103.57
X162.902Y-93.993
X162.904Y-96.029
X162.939Y-86.815
X163.6Y-157.15
X163.965Y-136.052
X164.27Y-95.596
X164.3Y-85.59
X164.3Y-88.01
X164.3Y-90.41
X164.3Y-92.81
X164.301Y-102.41
X165.4Y-131.838
X165.8Y-101.45
X165.8Y-102.15
X166.0Y-71.15
X166.1Y-74.462
X166.5Y-101.4
X166.5Y-101.9
X166.7Y-143.5
X166.8Y-131.05
X167.2Y-78.82
X167.2Y-100.25
X167.2Y-100.95
X167.2Y-134.8
X167.225Y-133.5
X167.4Y-131.275
X167.5Y-119.3
X167.5Y-129.7
X167.7Y-136.825
X167.8Y-99.7
X167.9Y-100.6
X168.0Y-78.82
X168.029Y-128.208
X168.3Y-119.5
X168.45Y-100.0
X168.575Y-126.55
X168.575Y-127.325
X168.6Y-98.55
X168.6Y-99.25
X168.6Y-116.4
X168.625Y-133.075
X168.7Y-117.0
X168.825Y-139.075
X168.9Y-95.65
X168.9Y-96.35
X169.025Y-136.3
X169.1Y-78.3
X169.3Y-99.0
X169.353Y-116.547
X169.4Y-98.4
X169.45Y-139.05
X169.5Y-125.6
X169.6Y-95.5
X169.6Y-96.4
X169.7Y-93.65
X169.7Y-94.35
X169.847Y-116.053
X169.868Y-126.848
X169.95Y-78.2
X170.1Y-97.25
X170.1Y-97.95
X170.3Y-93.1
X170.45Y-94.45
X170.5Y-115.7
X170.5Y-125.3
X170.5Y-140.15
X170.5Y-140.825
X170.55Y-142.3
X170.6Y-96.6
X170.8Y-78.2
X170.825Y-97.6
X170.9Y-89.45
X170.9Y-90.15
X170.9Y-91.85
X170.9Y-92.55
X170.95Y-137.325
X171.0Y-124.4
X171.05Y-127.6
X171.1Y-125.3
X171.15Y-142.05
X171.15Y-142.75
X171.3Y-116.8
X171.453Y-116.047
X171.6Y-91.8
X171.6Y-92.6
X171.65Y-90.25
X171.7Y-78.2
X171.75Y-89.45
X171.75Y-124.237
X171.9Y-138.65
X171.947Y-115.553
X172.15Y-126.925
X172.3Y-90.65
X172.3Y-91.35
X172.45Y-124.237
X172.5Y-78.2
X172.5Y-88.35
X172.5Y-89.05
X172.5Y-115.0
X172.7Y-114.3
X173.0Y-84.65
X173.0Y-85.35
X173.0Y-113.5
X173.05Y-90.5
X173.1Y-91.4
X173.15Y-124.237
X173.2Y-88.15
X173.2Y-141.525
X173.35Y-89.2
X173.35Y-139.15
X173.5Y-114.2
X173.75Y-84.4
X173.753Y-113.447
X173.8Y-79.3
X173.8Y-85.25
X173.85Y-87.05
X173.85Y-87.75
X173.862Y-124.2
X174.247Y-112.953
X174.4Y-112.2
X174.45Y-85.35
X174.5Y-79.2
X174.536Y-141.767
X174.562Y-124.2
X174.6Y-87.15
X174.6Y-87.85
X175.075Y-126.925
X175.1Y-112.8
X175.119Y-92.755
X175.2Y-111.4
X175.239Y-141.767
X175.255Y-79.3
X175.35Y-71.1
X175.35Y-72.5
X175.35Y-73.9
X175.35Y-75.5
X175.35Y-124.237
X175.4Y-112.1
X175.5Y-85.85
X175.5Y-86.55
X175.625Y-138.975
X175.8Y-87.35
X176.0Y-111.4
X176.2Y-80.5
X176.275Y-137.4
X176.3Y-110.3
X176.5Y-157.5
X176.55Y-141.5
X176.8Y-111.2
X176.85Y-84.85
X176.85Y-124.438
X176.925Y-125.385
X177.053Y-110.347
X177.2Y-80.5
X177.5Y-79.9
X177.5Y-109.1
X177.547Y-109.853
X177.575Y-124.4
X178.2Y-79.2
X178.2Y-88.4
X178.275Y-124.4
X178.375Y-138.575
X178.45Y-86.25
X178.595Y-128.3
X178.625Y-140.975
X178.637Y-131.662
X178.65Y-91.1
X178.662Y-130.362
X178.662Y-135.412
X178.662Y-136.362
X178.7Y-134.1
X179.0Y-79.3
X179.05Y-84.4
X179.05Y-124.438
X179.175Y-92.6
X179.2Y-90.3
X179.45Y-86.1
X179.525Y-91.725
X179.55Y-87.4
X179.7Y-89.5
X179.7Y-126.9
X179.9Y-79.3
X180.2Y-91.0
X180.237Y-134.787
X180.262Y-131.012
X180.3Y-124.3
X180.4Y-92.05
X180.9Y-87.8
X181.0Y-131.65
X181.1Y-109.1
X181.1Y-109.9
X181.3Y-79.2
X181.325Y-138.65
X181.4Y-84.3
X181.7Y-88.1
X181.849Y-131.4
X181.9Y-86.5
X182.1Y-84.9
X182.175Y-132.0
X182.2Y-79.2
X182.3Y-137.725
X182.3Y-158.6
X182.552Y-131.4
X182.8Y-85.0
X182.8Y-86.5
X183.075Y-131.975
X183.5Y-77.7
X183.5Y-85.7
X183.5Y-118.85
X183.719Y-86.741
X183.8Y-117.7
X184.3Y-85.3
X184.553Y-117.847
X184.7Y-118.6
X184.7Y-127.3
X184.95Y-76.8
X184.975Y-135.75
X185.0Y-116.5
X185.0Y-139.425
X185.047Y-117.353
X185.088Y-128.895
X185.5Y-132.6
X185.722Y-128.895
X185.9Y-117.4
X186.2Y-130.3
X186.45Y-86.3
X186.825Y-137.4
X187.2Y-86.2
X187.25Y-76.8
X188.1Y-133.3
X188.2Y-96.6
X189.2Y-79.6
X189.2Y-95.52
X189.3Y-96.6
X189.35Y-76.8
X189.4Y-129.0
X189.9Y-131.125
X190.15Y-79.8
X190.15Y-81.3
X190.15Y-82.4
X190.15Y-83.5
X190.3Y-95.16
X190.4Y-100.3
X190.65Y-97.601
X190.725Y-128.625
X191.0Y-80.2
X191.05Y-81.7
X191.05Y-82.9
X191.1Y-91.9
X191.2Y-100.4
X191.3Y-95.16
X191.3Y-97.591
X191.4Y-158.6
X191.5Y-129.775
X191.55Y-90.45
X191.95Y-76.8
X192.0Y-92.0
X192.0Y-100.5
X192.047Y-98.905
X192.06Y-93.553
X192.134Y-95.193
X192.2Y-132.8
X192.35Y-75.9
X192.45Y-71.0
X192.5Y-80.4
X192.75Y-79.7
X192.815Y-98.83
X192.9Y-94.9
X192.9Y-96.8
X192.95Y-91.95
X193.0Y-100.905
X193.05Y-88.2
X193.1Y-110.025
X193.3Y-90.4
X193.3Y-142.1
X193.5Y-85.305
X193.5Y-87.0
X193.5Y-129.2
X193.517Y-98.774
X193.6Y-94.8
X193.6Y-96.8
X193.6Y-100.5
X193.6Y-105.0
X193.645Y-92.8
X193.68Y-157.55
X193.725Y-129.875
X193.75Y-146.8
X193.9Y-109.5
X193.95Y-108.3
X194.68Y-155.7
X194.8Y-84.4
X195.1Y-85.585
X195.1Y-90.42
X195.1Y-92.0
X195.1Y-103.6
X195.15Y-102.4
X195.181Y-98.797
X195.2Y-94.8
X195.2Y-96.8
X195.2Y-108.0
X195.227Y-101.007
X195.25Y-88.2
X195.6Y-98.3
X195.76Y-157.15
X195.8Y-90.0
X195.8Y-101.7
X195.802Y-93.02
X195.9Y-94.5
X195.9Y-96.7
X195.9Y-100.01
X196.002Y-92.08
X196.3Y-98.6
X196.5Y-86.0
X196.571Y-95.412
X196.6Y-84.72
X196.6Y-100.4
X196.6Y-101.1
X196.7Y-96.4
X196.7Y-102.2
X196.733Y-94.39
X196.8Y-90.8
X196.8Y-93.2
X196.825Y-135.31
X196.825Y-137.21
X196.825Y-91.937
X196.85Y-157.15
X197.25Y-105.3
X197.4Y-107.2
X197.95Y-106.6
X197.95Y-157.15
X198.0Y-84.5
X198.195Y-103.6
X198.219Y-100.362
X198.275Y-99.5
X198.275Y-94.9
X198.3Y-95.8
X198.3Y-98.6
X198.327Y-96.451
X198.4Y-97.2
X198.4Y-101.2
X198.5Y-86.2
X198.5Y-97.9
X198.5Y-106.1
X198.55Y-142.55
X198.55Y-144.85
X198.65Y-133.575
X198.88Y-95.314
X199.05Y-157.15
X199.425Y-74.975
X199.7Y-75.8
X199.7Y-80.3
X199.7Y-142.5
X199.8Y-139.4
X200.2Y-140.1
X200.2Y-144.85
X200.2Y-157.1
X200.5Y-85.7
X200.5Y-89.3
X200.5Y-142.3
X200.55Y-88.4
X200.57Y-138.1
X200.65Y-80.3
X200.8Y-75.7
X200.85Y-90.0
X200.9Y-138.7
X201.02Y-136.7
X201.15Y-156.8
X201.35Y-88.2
X201.4Y-89.2
X201.4Y-137.2
X201.7Y-138.1
X202.0Y-135.6
X202.4Y-78.5
X202.5Y-77.0
X202.65Y-120.8
X202.7Y-132.2
X202.7Y-136.3
X202.8Y-127.8
X203.3Y-120.55
X203.3Y-121.2
X203.48Y-133.6
X203.9Y-127.6
X203.95Y-120.95
X204.9Y-136.15
X204.9Y-138.4
X205.2Y-77.0
X206.05Y-158.05
X207.0Y-126.4
X207.35Y-156.4
X207.5Y-79.7
X207.56Y-144.35
X208.45Y-158.05
X208.85Y-146.8
X208.95Y-139.8
X209.0Y-72.5
X209.0Y-132.5
X209.29Y-115.91
X209.7Y-77.0
X209.85Y-85.2
X210.575Y-120.775
X210.9Y-158.75
X213.0Y-120.8
X213.15Y-134.2
X213.15Y-139.8
X213.25Y-146.2
X213.75Y-85.2
X214.0Y-155.0
X214.0Y-157.5
X216.25Y-96.05
X220.4Y-135.6
X221.3Y-94.3
X221.3Y-95.3
X221.3Y-96.5
X222.85Y-136.4
X223.0Y-94.2
X223.0Y-96.6
X223.05Y-95.35
X223.05Y-97.66
X223.05Y-98.85
X224.0Y-157.5
X224.4Y-94.0
X224.4Y-95.35
X224.4Y-96.6
X224.4Y-98.86
X225.6Y-87.75
X225.6Y-94.0
X225.6Y-95.35
X225.6Y-96.6
X225.6Y-98.86
X225.75Y-97.9
X226.65Y-99.6
X226.65Y-100.4
X226.65Y-101.4
X226.65Y-102.3
X228.45Y-102.75
X230.25Y-99.5
X230.25Y-100.4
X230.25Y-101.5
X230.25Y-102.3
X231.2Y-95.4
X231.215Y-93.885
X231.235Y-96.765
X231.75Y-89.05
X232.6Y-94.0
X232.6Y-95.5
X232.6Y-96.7
X232.6Y-98.0
X232.6Y-99.0
X232.7Y-92.4
X233.5Y-92.4
X233.5Y-94.0
X233.5Y-95.5
X233.5Y-96.7
X233.5Y-98.0
X233.5Y-99.0
X234.05Y-145.55
X234.1Y-144.05
X236.5Y-72.5
X236.5Y-77.5
X236.5Y-112.5
X236.5Y-122.5
X236.5Y-132.5
X236.5Y-157.5
X236.85Y-94.1
X237.0Y-142.0
X226.45Y-94.7
X226.45Y-96.0
X227.75Y-94.7
X227.75Y-96.0
X229.05Y-94.7
X229.05Y-96.0
X230.35Y-94.7
X230.35Y-96.0
X171.262Y-129.987
X171.262Y-131.162
X171.262Y-132.338
X171.262Y-133.512
X171.262Y-134.688
X172.438Y-129.987
X172.438Y-131.162
X172.438Y-132.338
X172.438Y-133.512
X172.438Y-134.688
X173.612Y-129.987
X173.612Y-131.162
X173.612Y-132.338
X173.612Y-133.512
X173.612Y-134.688
X174.787Y-129.987
X174.787Y-131.162
X174.787Y-132.338
X174.787Y-133.512
X174.787Y-134.688
X175.963Y-129.987
X175.963Y-131.162
X175.963Y-132.338
X175.963Y-133.512
X175.963Y-134.688
T3
X168.0Y-144.95
X168.0Y-148.15
X168.5Y-146.45
X168.5Y-149.65
X170.0Y-144.9
X170.0Y-148.1
X171.0Y-146.45
X171.0Y-149.65
X172.0Y-144.95
X172.0Y-148.15
X173.0Y-146.45
X173.0Y-149.65
X174.0Y-144.95
X174.0Y-148.15
X175.5Y-146.45
X175.5Y-149.65
X176.0Y-144.95
X176.0Y-148.15
T5
X211.75Y-81.75
X214.25Y-81.75
X216.75Y-81.75
X219.25Y-81.75
X147.285Y-141.61
X147.285Y-146.67
X148.555Y-144.15
X149.825Y-141.61
X149.825Y-147.94
X151.095Y-144.15
X152.365Y-141.61
X153.635Y-144.15
X154.905Y-141.61
X156.175Y-144.15
X156.175Y-147.94
X157.445Y-141.61
X158.715Y-144.15
X158.715Y-146.67
T6
X87.37Y-106.28
X87.37Y-108.82
X89.91Y-106.28
X89.91Y-108.82
X92.45Y-106.28
X92.45Y-108.82
X94.99Y-106.28
X94.99Y-108.82
X97.53Y-106.28
X97.53Y-108.82
X100.07Y-106.28
X100.07Y-108.82
X102.61Y-106.28
X102.61Y-108.82
X105.15Y-106.28
X105.15Y-108.82
X107.69Y-106.28
X107.69Y-108.82
X110.23Y-106.28
X110.23Y-108.82
X112.77Y-106.28
X112.77Y-108.82
X115.31Y-106.28
X115.31Y-108.82
X117.85Y-106.28
X117.85Y-108.82
X120.39Y-106.28
X120.39Y-108.82
X122.93Y-106.28
X122.93Y-108.82
X125.47Y-106.28
X125.47Y-108.82
X128.01Y-106.28
X128.01Y-108.82
X130.55Y-106.28
X130.55Y-108.82
X133.09Y-106.28
X133.09Y-108.82
X135.63Y-106.28
X135.63Y-108.82
X139.23Y-112.37
X139.23Y-114.91
X141.77Y-112.37
X141.77Y-114.91
X187.0Y-141.4
X187.0Y-143.94
X187.0Y-146.48
X187.0Y-149.02
X187.0Y-151.56
X189.54Y-141.4
X189.54Y-143.94
X189.54Y-146.48
X189.54Y-149.02
X189.54Y-151.56
X91.96Y-136.0
X94.5Y-136.0
X97.04Y-136.0
X120.4Y-100.66
X120.4Y-103.2
X122.94Y-100.66
X122.94Y-103.2
X202.42Y-72.5
X204.96Y-72.5
X207.5Y-72.5
X139.0Y-71.96
X139.0Y-74.5
X141.54Y-71.96
X141.54Y-74.5
X144.08Y-71.96
X144.08Y-74.5
X146.62Y-71.96
X146.62Y-74.5
X149.16Y-71.96
X149.16Y-74.5
X151.7Y-71.96
X151.7Y-74.5
X154.24Y-71.96
X154.24Y-74.5
T7
X226.3Y-73.5
X228.84Y-73.5
X231.38Y-73.5
X233.92Y-73.5
X146.37Y-154.56
X148.91Y-154.56
X157.09Y-154.56
X159.63Y-154.56
T8
X145.125Y-147.45
X160.875Y-147.45
T9
X165.43Y-145.97
X165.43Y-151.65
X178.57Y-145.97
X178.57Y-151.65
T10
X231.38Y-71.34
T11
X224.0Y-152.0
X82.5Y-156.5
X90.0Y-152.0
X90.0Y-83.0
X140.5Y-156.5
X82.5Y-107.5
X162.5Y-73.5
X162.5Y-121.5
X195.5Y-73.5
X195.5Y-121.5
X224.0Y-83.0
X140.5Y-107.5
T12
X147.285Y-150.5
X158.715Y-150.5
T2
G00X184.575Y-155.47
M15
G01X184.575Y-155.07
M16
G05
G00X189.425Y-155.47
M15
G01X189.425Y-155.07
M16
G05
T3
G00X184.275Y-158.55
M15
G01X184.275Y-158.05
M16
G05
G00X189.725Y-158.55
M15
G01X189.725Y-158.05
M16
G05
T4
G00X231.15Y-147.7
M15
G01X233.35Y-147.7
M16
G05
G00X231.15Y-153.5
M15
G01X233.35Y-153.5
M16
G05
G00X237.05Y-151.8
M15
G01X237.05Y-149.6
M16
G05
T5
G00X119.75Y-149.55
M15
G01X119.75Y-151.35
M16
G05
G00X119.75Y-156.01
M15
G01X119.75Y-156.81
M16
G05
G00X134.25Y-149.55
M15
G01X134.25Y-151.35
M16
G05
G00X134.25Y-156.01
M15
G01X134.25Y-156.81
M16
G05
G00X94.75Y-149.55
M15
G01X94.75Y-151.35
M16
G05
G00X94.75Y-156.01
M15
G01X94.75Y-156.81
M16
G05
G00X109.25Y-149.55
M15
G01X109.25Y-151.35
M16
G05
G00X109.25Y-156.01
M15
G01X109.25Y-156.81
M16
G05
T0
M30
