G04 #@! TF.GenerationSoftware,KiCad,Pcbnew,(5.99.0-6751-g76ac8b5acf)*
G04 #@! TF.CreationDate,2021-06-14T13:23:57+01:00*
G04 #@! TF.ProjectId,CM4IOUSB3,434d3449-4f55-4534-9233-2e6b69636164,rev?*
G04 #@! TF.SameCoordinates,Original*
G04 #@! TF.FileFunction,Soldermask,Bot*
G04 #@! TF.FilePolarity,Negative*
%FSLAX46Y46*%
G04 Gerber Fmt 4.6, Leading zero omitted, Abs format (unit mm)*
G04 Created by KiCad (PCBNEW (5.99.0-6751-g76ac8b5acf)) date 2021-06-14 13:23:57*
%MOMM*%
%LPD*%
G01*
G04 APERTURE LIST*
G04 Aperture macros list*
%AMRoundRect*
0 Rectangle with rounded corners*
0 $1 Rounding radius*
0 $2 $3 $4 $5 $6 $7 $8 $9 X,Y pos of 4 corners*
0 Add a 4 corners polygon primitive as box body*
4,1,4,$2,$3,$4,$5,$6,$7,$8,$9,$2,$3,0*
0 Add four circle primitives for the rounded corners*
1,1,$1+$1,$2,$3,0*
1,1,$1+$1,$4,$5,0*
1,1,$1+$1,$6,$7,0*
1,1,$1+$1,$8,$9,0*
0 Add four rect primitives between the rounded corners*
20,1,$1+$1,$2,$3,$4,$5,0*
20,1,$1+$1,$4,$5,$6,$7,0*
20,1,$1+$1,$6,$7,$8,$9,0*
20,1,$1+$1,$8,$9,$2,$3,0*%
G04 Aperture macros list end*
%ADD10C,6.100000*%
%ADD11RoundRect,0.051000X-0.850000X0.850000X-0.850000X-0.850000X0.850000X-0.850000X0.850000X0.850000X0*%
%ADD12O,1.802000X1.802000*%
%ADD13RoundRect,0.051000X0.850000X-0.850000X0.850000X0.850000X-0.850000X0.850000X-0.850000X-0.850000X0*%
%ADD14RoundRect,0.051000X-0.850000X-0.850000X0.850000X-0.850000X0.850000X0.850000X-0.850000X0.850000X0*%
%ADD15O,1.402000X1.802000*%
%ADD16O,1.102000X1.502000*%
%ADD17O,5.102000X2.902000*%
%ADD18RoundRect,0.725500X1.825500X-0.725500X1.825500X0.725500X-1.825500X0.725500X-1.825500X-0.725500X0*%
%ADD19RoundRect,0.725500X0.725500X-1.825500X0.725500X1.825500X-0.725500X1.825500X-0.725500X-1.825500X0*%
%ADD20C,3.302000*%
%ADD21RoundRect,0.267534X-0.533466X-0.533466X0.533466X-0.533466X0.533466X0.533466X-0.533466X0.533466X0*%
%ADD22C,1.602000*%
%ADD23C,2.602000*%
%ADD24O,1.602000X3.402000*%
%ADD25O,1.602000X2.402000*%
%ADD26C,1.202000*%
%ADD27RoundRect,0.051000X-1.015000X-0.865000X1.015000X-0.865000X1.015000X0.865000X-1.015000X0.865000X0*%
%ADD28O,1.832000X2.132000*%
%ADD29RoundRect,0.100000X2.200000X-0.900000X2.200000X0.900000X-2.200000X0.900000X-2.200000X-0.900000X0*%
%ADD30RoundRect,0.051000X0.704000X0.704000X-0.704000X0.704000X-0.704000X-0.704000X0.704000X-0.704000X0*%
%ADD31C,1.510000*%
%ADD32C,3.202000*%
%ADD33RoundRect,0.051000X-1.000000X-1.000000X1.000000X-1.000000X1.000000X1.000000X-1.000000X1.000000X0*%
G04 APERTURE END LIST*
D10*
X162500000Y-121500000D03*
X195500000Y-121500000D03*
X162500000Y-73500000D03*
X195500000Y-73500000D03*
D11*
X97040000Y-136000000D03*
D12*
X94500000Y-136000000D03*
X91960000Y-136000000D03*
D13*
X87370000Y-108820000D03*
D12*
X87370000Y-106280000D03*
X89910000Y-108820000D03*
X89910000Y-106280000D03*
X92450000Y-108820000D03*
X92450000Y-106280000D03*
X94990000Y-108820000D03*
X94990000Y-106280000D03*
X97530000Y-108820000D03*
X97530000Y-106280000D03*
X100070000Y-108820000D03*
X100070000Y-106280000D03*
X102610000Y-108820000D03*
X102610000Y-106280000D03*
X105150000Y-108820000D03*
X105150000Y-106280000D03*
X107690000Y-108820000D03*
X107690000Y-106280000D03*
X110230000Y-108820000D03*
X110230000Y-106280000D03*
X112770000Y-108820000D03*
X112770000Y-106280000D03*
X115310000Y-108820000D03*
X115310000Y-106280000D03*
X117850000Y-108820000D03*
X117850000Y-106280000D03*
X120390000Y-108820000D03*
X120390000Y-106280000D03*
X122930000Y-108820000D03*
X122930000Y-106280000D03*
X125470000Y-108820000D03*
X125470000Y-106280000D03*
X128010000Y-108820000D03*
X128010000Y-106280000D03*
X130550000Y-108820000D03*
X130550000Y-106280000D03*
X133090000Y-108820000D03*
X133090000Y-106280000D03*
X135630000Y-108820000D03*
X135630000Y-106280000D03*
D14*
X139230000Y-112370000D03*
D12*
X141770000Y-112370000D03*
X139230000Y-114910000D03*
X141770000Y-114910000D03*
D15*
X189725000Y-158300000D03*
D16*
X184575000Y-155270000D03*
D15*
X184275000Y-158300000D03*
D16*
X189425000Y-155270000D03*
D17*
X232250000Y-147700000D03*
D18*
X232250000Y-153500000D03*
D19*
X237050000Y-150700000D03*
D20*
X147285000Y-150500000D03*
X158715000Y-150500000D03*
D21*
X147285000Y-141610000D03*
D22*
X148555000Y-144150000D03*
X149825000Y-141610000D03*
X151095000Y-144150000D03*
X152365000Y-141610000D03*
X153635000Y-144150000D03*
X154905000Y-141610000D03*
X156175000Y-144150000D03*
X157445000Y-141610000D03*
X158715000Y-144150000D03*
X147285000Y-146670000D03*
X149825000Y-147940000D03*
X156175000Y-147940000D03*
X158715000Y-146670000D03*
X146370000Y-154560000D03*
X148910000Y-154560000D03*
X157090000Y-154560000D03*
X159630000Y-154560000D03*
D23*
X145125000Y-147450000D03*
X160875000Y-147450000D03*
D24*
X134250000Y-150450000D03*
X119750000Y-150450000D03*
D25*
X119750000Y-156410000D03*
X134250000Y-156410000D03*
D24*
X109250000Y-150450000D03*
X94750000Y-150450000D03*
D25*
X94750000Y-156410000D03*
X109250000Y-156410000D03*
D26*
X231380000Y-71340000D03*
D27*
X226300000Y-73500000D03*
D28*
X228840000Y-73500000D03*
X231380000Y-73500000D03*
X233920000Y-73500000D03*
D10*
X90000000Y-152000000D03*
X82500000Y-156500000D03*
X82500000Y-107500000D03*
X140500000Y-156500000D03*
X140500000Y-107500000D03*
X224000000Y-83000000D03*
X90000000Y-83000000D03*
X224000000Y-152000000D03*
D29*
X228400000Y-95350000D03*
D30*
X219250000Y-81750000D03*
D31*
X216750000Y-81750000D03*
X214250000Y-81750000D03*
X211750000Y-81750000D03*
D13*
X120400000Y-103200000D03*
D12*
X120400000Y-100660000D03*
X122940000Y-103200000D03*
X122940000Y-100660000D03*
D13*
X139000000Y-74500000D03*
D12*
X139000000Y-71960000D03*
X141540000Y-74500000D03*
X141540000Y-71960000D03*
X144080000Y-74500000D03*
X144080000Y-71960000D03*
X146620000Y-74500000D03*
X146620000Y-71960000D03*
X149160000Y-74500000D03*
X149160000Y-71960000D03*
X151700000Y-74500000D03*
X151700000Y-71960000D03*
X154240000Y-74500000D03*
X154240000Y-71960000D03*
D11*
X207500000Y-72500000D03*
D12*
X204960000Y-72500000D03*
X202420000Y-72500000D03*
D32*
X165430000Y-151650000D03*
X178570000Y-151650000D03*
X178570000Y-145970000D03*
X165430000Y-145970000D03*
D26*
X168500000Y-149650000D03*
X171000000Y-149650000D03*
X173000000Y-149650000D03*
X175500000Y-149650000D03*
X176000000Y-148150000D03*
X174000000Y-148150000D03*
X172000000Y-148150000D03*
X170000000Y-148100000D03*
X168000000Y-148150000D03*
X168500000Y-146450000D03*
X171000000Y-146450000D03*
X173000000Y-146450000D03*
X175500000Y-146450000D03*
X176000000Y-144950000D03*
X174000000Y-144950000D03*
X172000000Y-144950000D03*
X170000000Y-144900000D03*
X168000000Y-144950000D03*
D14*
X187000000Y-141400000D03*
D12*
X189540000Y-141400000D03*
X187000000Y-143940000D03*
X189540000Y-143940000D03*
X187000000Y-146480000D03*
X189540000Y-146480000D03*
X187000000Y-149020000D03*
X189540000Y-149020000D03*
X187000000Y-151560000D03*
X189540000Y-151560000D03*
D33*
X227450000Y-104200000D03*
X216400000Y-93300000D03*
X219695000Y-124450000D03*
X116411606Y-156100000D03*
X113100000Y-156100000D03*
G36*
X146486116Y-146665987D02*
G01*
X146486930Y-146667410D01*
X146493936Y-146738867D01*
X146493347Y-146740165D01*
X146493365Y-146740167D01*
X146494205Y-146741608D01*
X146503472Y-146836116D01*
X146559697Y-147005137D01*
X146644590Y-147145312D01*
X146644632Y-147147312D01*
X146642921Y-147148348D01*
X146641393Y-147147686D01*
X146636048Y-147141749D01*
X146635802Y-147141411D01*
X146634185Y-147138611D01*
X146627433Y-147132173D01*
X146627362Y-147132100D01*
X146627357Y-147132100D01*
X146583845Y-147090612D01*
X146515837Y-147077505D01*
X146451540Y-147103247D01*
X146411370Y-147159659D01*
X146408450Y-147226655D01*
X146407376Y-147228342D01*
X146405378Y-147228255D01*
X146404460Y-147226742D01*
X146404259Y-147224436D01*
X146345653Y-147005719D01*
X146259508Y-146820980D01*
X146259683Y-146818988D01*
X146261495Y-146818143D01*
X146263000Y-146819049D01*
X146264481Y-146821338D01*
X146317187Y-146866730D01*
X146385768Y-146876379D01*
X146448681Y-146847419D01*
X146486002Y-146788958D01*
X146490223Y-146741625D01*
X146490930Y-146740619D01*
X146489957Y-146739271D01*
X146482699Y-146670209D01*
X146482699Y-146669791D01*
X146482951Y-146667396D01*
X146484127Y-146665778D01*
X146486116Y-146665987D01*
G37*
G36*
X159509987Y-146740110D02*
G01*
X159510723Y-146741326D01*
X159522667Y-146806633D01*
X159569983Y-146857211D01*
X159637130Y-146874178D01*
X159702814Y-146852142D01*
X159735122Y-146813630D01*
X159737781Y-146813263D01*
X159737837Y-146813301D01*
X159743687Y-146804725D01*
X159745489Y-146803858D01*
X159747141Y-146804985D01*
X159747152Y-146806697D01*
X159654347Y-147005719D01*
X159598630Y-147213655D01*
X159597216Y-147215069D01*
X159595284Y-147214551D01*
X159594730Y-147213493D01*
X159582304Y-147144866D01*
X159535077Y-147094205D01*
X159467960Y-147077121D01*
X159402193Y-147099057D01*
X159365793Y-147138647D01*
X159364197Y-147141412D01*
X159363951Y-147141750D01*
X159347457Y-147160068D01*
X159345555Y-147160686D01*
X159344069Y-147159348D01*
X159344305Y-147157623D01*
X159425633Y-147035215D01*
X159488885Y-146868701D01*
X159506775Y-146741408D01*
X159508007Y-146739832D01*
X159509987Y-146740110D01*
G37*
M02*
