G04 #@! TF.GenerationSoftware,KiCad,Pcbnew,(5.99.0-6751-g76ac8b5acf)*
G04 #@! TF.CreationDate,2021-06-14T13:23:57+01:00*
G04 #@! TF.ProjectId,CM4IOUSB3,434d3449-4f55-4534-9233-2e6b69636164,rev?*
G04 #@! TF.SameCoordinates,Original*
G04 #@! TF.FileFunction,Paste,Top*
G04 #@! TF.FilePolarity,Positive*
%FSLAX46Y46*%
G04 Gerber Fmt 4.6, Leading zero omitted, Abs format (unit mm)*
G04 Created by KiCad (PCBNEW (5.99.0-6751-g76ac8b5acf)) date 2021-06-14 13:23:57*
%MOMM*%
%LPD*%
G01*
G04 APERTURE LIST*
G04 Aperture macros list*
%AMRoundRect*
0 Rectangle with rounded corners*
0 $1 Rounding radius*
0 $2 $3 $4 $5 $6 $7 $8 $9 X,Y pos of 4 corners*
0 Add a 4 corners polygon primitive as box body*
4,1,4,$2,$3,$4,$5,$6,$7,$8,$9,$2,$3,0*
0 Add four circle primitives for the rounded corners*
1,1,$1+$1,$2,$3,0*
1,1,$1+$1,$4,$5,0*
1,1,$1+$1,$6,$7,0*
1,1,$1+$1,$8,$9,0*
0 Add four rect primitives between the rounded corners*
20,1,$1+$1,$2,$3,$4,$5,0*
20,1,$1+$1,$4,$5,$6,$7,0*
20,1,$1+$1,$6,$7,$8,$9,0*
20,1,$1+$1,$8,$9,$2,$3,0*%
G04 Aperture macros list end*
%ADD10R,0.700000X0.200000*%
%ADD11R,5.080000X1.270000*%
%ADD12R,3.960000X3.960000*%
%ADD13RoundRect,0.147500X0.172500X-0.147500X0.172500X0.147500X-0.172500X0.147500X-0.172500X-0.147500X0*%
%ADD14RoundRect,0.243750X0.243750X0.456250X-0.243750X0.456250X-0.243750X-0.456250X0.243750X-0.456250X0*%
%ADD15RoundRect,0.147500X-0.172500X0.147500X-0.172500X-0.147500X0.172500X-0.147500X0.172500X0.147500X0*%
%ADD16RoundRect,0.147500X-0.147500X-0.172500X0.147500X-0.172500X0.147500X0.172500X-0.147500X0.172500X0*%
%ADD17RoundRect,0.243750X-0.243750X-0.456250X0.243750X-0.456250X0.243750X0.456250X-0.243750X0.456250X0*%
%ADD18RoundRect,0.243750X-0.456250X0.243750X-0.456250X-0.243750X0.456250X-0.243750X0.456250X0.243750X0*%
%ADD19R,0.300000X1.300000*%
%ADD20R,1.800000X2.200000*%
%ADD21RoundRect,0.147500X0.147500X0.172500X-0.147500X0.172500X-0.147500X-0.172500X0.147500X-0.172500X0*%
%ADD22R,0.300000X0.550000*%
%ADD23R,0.400000X0.550000*%
%ADD24R,0.800000X0.900000*%
%ADD25RoundRect,0.218750X0.218750X0.256250X-0.218750X0.256250X-0.218750X-0.256250X0.218750X-0.256250X0*%
%ADD26RoundRect,0.125000X-0.687500X-0.125000X0.687500X-0.125000X0.687500X0.125000X-0.687500X0.125000X0*%
%ADD27R,0.650000X0.400000*%
%ADD28R,0.400000X1.750000*%
%ADD29R,1.300000X2.000000*%
%ADD30R,1.425000X2.500000*%
%ADD31R,2.000000X1.400000*%
%ADD32R,1.825000X0.700000*%
%ADD33R,0.400000X0.650000*%
%ADD34R,1.060000X0.650000*%
%ADD35R,0.300000X2.600000*%
%ADD36R,2.350000X5.100000*%
%ADD37RoundRect,0.250000X0.460000X-0.315000X0.460000X0.315000X-0.460000X0.315000X-0.460000X-0.315000X0*%
%ADD38RoundRect,0.150000X0.150000X-0.737500X0.150000X0.737500X-0.150000X0.737500X-0.150000X-0.737500X0*%
%ADD39RoundRect,0.249999X-0.325001X-0.450001X0.325001X-0.450001X0.325001X0.450001X-0.325001X0.450001X0*%
%ADD40R,0.900000X0.800000*%
%ADD41RoundRect,0.150000X0.825000X0.150000X-0.825000X0.150000X-0.825000X-0.150000X0.825000X-0.150000X0*%
%ADD42R,1.800000X1.000000*%
%ADD43R,0.700000X1.100000*%
%ADD44R,0.900000X0.930000*%
%ADD45R,1.050000X0.780000*%
%ADD46R,0.860000X2.800000*%
%ADD47R,0.700000X3.330000*%
%ADD48R,1.140000X1.830000*%
%ADD49R,1.300000X0.300000*%
%ADD50R,2.200000X1.800000*%
%ADD51R,0.420000X0.700000*%
%ADD52R,1.000000X0.600000*%
%ADD53RoundRect,0.250000X0.787500X1.025000X-0.787500X1.025000X-0.787500X-1.025000X0.787500X-1.025000X0*%
%ADD54RoundRect,0.250000X0.375000X0.850000X-0.375000X0.850000X-0.375000X-0.850000X0.375000X-0.850000X0*%
%ADD55R,0.510000X0.400000*%
%ADD56RoundRect,0.250000X0.253488X0.253488X-0.253488X0.253488X-0.253488X-0.253488X0.253488X-0.253488X0*%
%ADD57RoundRect,0.050000X0.362500X0.050000X-0.362500X0.050000X-0.362500X-0.050000X0.362500X-0.050000X0*%
%ADD58RoundRect,0.050000X0.050000X0.362500X-0.050000X0.362500X-0.050000X-0.362500X0.050000X-0.362500X0*%
%ADD59RoundRect,0.250000X1.025000X-0.787500X1.025000X0.787500X-1.025000X0.787500X-1.025000X-0.787500X0*%
%ADD60RoundRect,0.243750X0.456250X-0.243750X0.456250X0.243750X-0.456250X0.243750X-0.456250X-0.243750X0*%
%ADD61R,0.650000X1.060000*%
%ADD62R,1.220000X0.650000*%
%ADD63RoundRect,0.218750X0.256250X-0.218750X0.256250X0.218750X-0.256250X0.218750X-0.256250X-0.218750X0*%
%ADD64R,1.200000X1.400000*%
G04 APERTURE END LIST*
D10*
X160460000Y-85200000D03*
X163540000Y-85200000D03*
X160460000Y-85600000D03*
X163540000Y-85600000D03*
X160460000Y-86000000D03*
X163540000Y-86000000D03*
X160460000Y-86400000D03*
X163540000Y-86400000D03*
X160460000Y-86800000D03*
X163540000Y-86800000D03*
X160460000Y-87200000D03*
X163540000Y-87200000D03*
X160460000Y-87600000D03*
X163540000Y-87600000D03*
X160460000Y-88000000D03*
X163540000Y-88000000D03*
X160460000Y-88400000D03*
X163540000Y-88400000D03*
X160460000Y-88800000D03*
X163540000Y-88800000D03*
X160460000Y-89200000D03*
X163540000Y-89200000D03*
X160460000Y-89600000D03*
X163540000Y-89600000D03*
X160460000Y-90000000D03*
X163540000Y-90000000D03*
X160460000Y-90400000D03*
X163540000Y-90400000D03*
X160460000Y-90800000D03*
X163540000Y-90800000D03*
X160460000Y-91200000D03*
X163540000Y-91200000D03*
X160460000Y-91600000D03*
X163540000Y-91600000D03*
X160460000Y-92000000D03*
X163540000Y-92000000D03*
X160460000Y-92400000D03*
X163540000Y-92400000D03*
X160460000Y-92800000D03*
X163540000Y-92800000D03*
X160460000Y-93200000D03*
X163540000Y-93200000D03*
X160460000Y-93600000D03*
X163540000Y-93600000D03*
X160460000Y-94000000D03*
X163540000Y-94000000D03*
X160460000Y-94400000D03*
X163540000Y-94400000D03*
X160460000Y-94800000D03*
X163540000Y-94800000D03*
X160460000Y-95200000D03*
X163540000Y-95200000D03*
X160460000Y-95600000D03*
X163540000Y-95600000D03*
X160460000Y-96000000D03*
X163540000Y-96000000D03*
X160460000Y-96400000D03*
X163540000Y-96400000D03*
X160460000Y-96800000D03*
X163540000Y-96800000D03*
X160460000Y-97200000D03*
X163540000Y-97200000D03*
X160460000Y-97600000D03*
X163540000Y-97600000D03*
X160460000Y-98000000D03*
X163540000Y-98000000D03*
X160460000Y-98400000D03*
X163540000Y-98400000D03*
X160460000Y-98800000D03*
X163540000Y-98800000D03*
X160460000Y-99200000D03*
X163540000Y-99200000D03*
X160460000Y-99600000D03*
X163540000Y-99600000D03*
X160460000Y-100000000D03*
X163540000Y-100000000D03*
X160460000Y-100400000D03*
X163540000Y-100400000D03*
X160460000Y-100800000D03*
X163540000Y-100800000D03*
X160460000Y-101200000D03*
X163540000Y-101200000D03*
X160460000Y-101600000D03*
X163540000Y-101600000D03*
X160460000Y-102000000D03*
X163540000Y-102000000D03*
X160460000Y-102400000D03*
X163540000Y-102400000D03*
X160460000Y-102800000D03*
X163540000Y-102800000D03*
X160460000Y-103200000D03*
X163540000Y-103200000D03*
X160460000Y-103600000D03*
X163540000Y-103600000D03*
X160460000Y-104000000D03*
X163540000Y-104000000D03*
X160460000Y-104400000D03*
X163540000Y-104400000D03*
X160460000Y-104800000D03*
X163540000Y-104800000D03*
X194460000Y-85200000D03*
X197540000Y-85200000D03*
X194460000Y-85600000D03*
X197540000Y-85600000D03*
X194460000Y-86000000D03*
X197540000Y-86000000D03*
X194460000Y-86400000D03*
X197540000Y-86400000D03*
X194460000Y-86800000D03*
X197540000Y-86800000D03*
X194460000Y-87200000D03*
X197540000Y-87200000D03*
X194460000Y-87600000D03*
X197540000Y-87600000D03*
X194460000Y-88000000D03*
X197540000Y-88000000D03*
X194460000Y-88400000D03*
X197540000Y-88400000D03*
X194460000Y-88800000D03*
X197540000Y-88800000D03*
X194460000Y-89200000D03*
X197540000Y-89200000D03*
X194460000Y-89600000D03*
X197540000Y-89600000D03*
X194460000Y-90000000D03*
X197540000Y-90000000D03*
X194460000Y-90400000D03*
X197540000Y-90400000D03*
X194460000Y-90800000D03*
X197540000Y-90800000D03*
X194460000Y-91200000D03*
X197540000Y-91200000D03*
X194460000Y-91600000D03*
X197540000Y-91600000D03*
X194460000Y-92000000D03*
X197540000Y-92000000D03*
X194460000Y-92400000D03*
X197540000Y-92400000D03*
X194460000Y-92800000D03*
X197540000Y-92800000D03*
X194460000Y-93200000D03*
X197540000Y-93200000D03*
X194460000Y-93600000D03*
X197540000Y-93600000D03*
X194460000Y-94000000D03*
X197540000Y-94000000D03*
X194460000Y-94400000D03*
X197540000Y-94400000D03*
X194460000Y-94800000D03*
X197540000Y-94800000D03*
X194460000Y-95200000D03*
X197540000Y-95200000D03*
X194460000Y-95600000D03*
X197540000Y-95600000D03*
X194460000Y-96000000D03*
X197540000Y-96000000D03*
X194460000Y-96400000D03*
X197540000Y-96400000D03*
X194460000Y-96800000D03*
X197540000Y-96800000D03*
X194460000Y-97200000D03*
X197540000Y-97200000D03*
X194460000Y-97600000D03*
X197540000Y-97600000D03*
X194460000Y-98000000D03*
X197540000Y-98000000D03*
X194460000Y-98400000D03*
X197540000Y-98400000D03*
X194460000Y-98800000D03*
X197540000Y-98800000D03*
X194460000Y-99200000D03*
X197540000Y-99200000D03*
X194460000Y-99600000D03*
X197540000Y-99600000D03*
X194460000Y-100000000D03*
X197540000Y-100000000D03*
X194460000Y-100400000D03*
X197540000Y-100400000D03*
X194460000Y-100800000D03*
X197540000Y-100800000D03*
X194460000Y-101200000D03*
X197540000Y-101200000D03*
X194460000Y-101600000D03*
X197540000Y-101600000D03*
X194460000Y-102000000D03*
X197540000Y-102000000D03*
X194460000Y-102400000D03*
X197540000Y-102400000D03*
X194460000Y-102800000D03*
X197540000Y-102800000D03*
X194460000Y-103200000D03*
X197540000Y-103200000D03*
X194460000Y-103600000D03*
X197540000Y-103600000D03*
X194460000Y-104000000D03*
X197540000Y-104000000D03*
X194460000Y-104400000D03*
X197540000Y-104400000D03*
X194460000Y-104800000D03*
X197540000Y-104800000D03*
D11*
X90000000Y-111515000D03*
X90000000Y-133485000D03*
D12*
X90000000Y-122500000D03*
D13*
X152300000Y-138785000D03*
X152300000Y-137815000D03*
D14*
X200387500Y-143750000D03*
X198512500Y-143750000D03*
D13*
X111550000Y-149985000D03*
X111550000Y-149015000D03*
X117000000Y-150085000D03*
X117000000Y-149115000D03*
D15*
X201700000Y-76415000D03*
X201700000Y-77385000D03*
D16*
X233115000Y-144800000D03*
X234085000Y-144800000D03*
D17*
X220262500Y-95400000D03*
X222137500Y-95400000D03*
X220262500Y-97550000D03*
X222137500Y-97550000D03*
D18*
X216250000Y-97650000D03*
X216250000Y-99525000D03*
X218400000Y-97662500D03*
X218400000Y-99537500D03*
D19*
X85250000Y-76850000D03*
X85750000Y-76850000D03*
X86250000Y-76850000D03*
X86750000Y-76850000D03*
X87250000Y-76850000D03*
X87750000Y-76850000D03*
X88250000Y-76850000D03*
X88750000Y-76850000D03*
X89250000Y-76850000D03*
X89750000Y-76850000D03*
X90250000Y-76850000D03*
X90750000Y-76850000D03*
X91250000Y-76850000D03*
X91750000Y-76850000D03*
X92250000Y-76850000D03*
X92750000Y-76850000D03*
X93250000Y-76850000D03*
X93750000Y-76850000D03*
X94250000Y-76850000D03*
X94750000Y-76850000D03*
X95250000Y-76850000D03*
X95750000Y-76850000D03*
D20*
X83350000Y-73600000D03*
X97650000Y-73600000D03*
D19*
X121250000Y-76850000D03*
X121750000Y-76850000D03*
X122250000Y-76850000D03*
X122750000Y-76850000D03*
X123250000Y-76850000D03*
X123750000Y-76850000D03*
X124250000Y-76850000D03*
X124750000Y-76850000D03*
X125250000Y-76850000D03*
X125750000Y-76850000D03*
X126250000Y-76850000D03*
X126750000Y-76850000D03*
X127250000Y-76850000D03*
X127750000Y-76850000D03*
X128250000Y-76850000D03*
X128750000Y-76850000D03*
X129250000Y-76850000D03*
X129750000Y-76850000D03*
X130250000Y-76850000D03*
X130750000Y-76850000D03*
X131250000Y-76850000D03*
X131750000Y-76850000D03*
D20*
X119350000Y-73600000D03*
X133650000Y-73600000D03*
D13*
X113600000Y-156885000D03*
X113600000Y-155915000D03*
D16*
X195200000Y-131950000D03*
X196170000Y-131950000D03*
D21*
X206385000Y-78700000D03*
X205415000Y-78700000D03*
D22*
X156400000Y-137900000D03*
X155900000Y-137900000D03*
D23*
X155400000Y-137900000D03*
D22*
X154900000Y-137900000D03*
X154400000Y-137900000D03*
X154400000Y-138670000D03*
X154900000Y-138670000D03*
D23*
X155400000Y-138670000D03*
D22*
X155900000Y-138670000D03*
X156400000Y-138670000D03*
D24*
X113150000Y-150300000D03*
X115050000Y-150300000D03*
X114100000Y-148300000D03*
D25*
X117137500Y-158900000D03*
X115562500Y-158900000D03*
D26*
X203887500Y-75025000D03*
X203887500Y-75675000D03*
X203887500Y-76325000D03*
X203887500Y-76975000D03*
X208112500Y-76975000D03*
X208112500Y-76325000D03*
X208112500Y-75675000D03*
X208112500Y-75025000D03*
D27*
X126668000Y-117822000D03*
X126668000Y-118472000D03*
X126668000Y-119122000D03*
X128568000Y-119122000D03*
X128568000Y-117822000D03*
D13*
X125062000Y-118433000D03*
X125062000Y-117463000D03*
X122014000Y-118433000D03*
X122014000Y-117463000D03*
X161900000Y-138970000D03*
X161900000Y-138000000D03*
X160200000Y-138885000D03*
X160200000Y-137915000D03*
D28*
X185700000Y-155480000D03*
X186350000Y-155480000D03*
X187000000Y-155480000D03*
X187650000Y-155480000D03*
X188300000Y-155480000D03*
D29*
X184275000Y-157370000D03*
D30*
X186037500Y-158550000D03*
X187962500Y-158550000D03*
D31*
X189900000Y-155240000D03*
D32*
X184012500Y-156600000D03*
D31*
X184150000Y-155240000D03*
D29*
X189725000Y-157370000D03*
D32*
X189987500Y-156600000D03*
D25*
X113487500Y-158900000D03*
X111912500Y-158900000D03*
D13*
X115800000Y-156885000D03*
X115800000Y-155915000D03*
D33*
X116250000Y-152350000D03*
X115600000Y-152350000D03*
X114950000Y-152350000D03*
X114950000Y-154250000D03*
X116250000Y-154250000D03*
D21*
X124023000Y-118456000D03*
X123053000Y-118456000D03*
X128357000Y-116440000D03*
X127387000Y-116440000D03*
D34*
X204898661Y-128505987D03*
X204898661Y-127555987D03*
X204898661Y-126605987D03*
X202698661Y-126605987D03*
X202698661Y-128505987D03*
D35*
X131500000Y-149720000D03*
X131000000Y-149720000D03*
X130500000Y-149720000D03*
X130000000Y-149720000D03*
X129500000Y-149720000D03*
X129000000Y-149720000D03*
X128500000Y-149720000D03*
X128000000Y-149720000D03*
X127500000Y-149720000D03*
X127000000Y-149720000D03*
X126500000Y-149720000D03*
X126000000Y-149720000D03*
X125500000Y-149720000D03*
X125000000Y-149720000D03*
X124500000Y-149720000D03*
X124000000Y-149720000D03*
X123500000Y-149720000D03*
X123000000Y-149720000D03*
X122500000Y-149720000D03*
X106500000Y-149720000D03*
X106000000Y-149720000D03*
X105500000Y-149720000D03*
X105000000Y-149720000D03*
X104500000Y-149720000D03*
X104000000Y-149720000D03*
X103500000Y-149720000D03*
X103000000Y-149720000D03*
X102500000Y-149720000D03*
X102000000Y-149720000D03*
X101500000Y-149720000D03*
X101000000Y-149720000D03*
X100500000Y-149720000D03*
X100000000Y-149720000D03*
X99500000Y-149720000D03*
X99000000Y-149720000D03*
X98500000Y-149720000D03*
X98000000Y-149720000D03*
X97500000Y-149720000D03*
D24*
X229150000Y-139950000D03*
X228200000Y-137950000D03*
X227250000Y-139950000D03*
D15*
X227250000Y-141765000D03*
X227250000Y-142735000D03*
D13*
X226450000Y-88635000D03*
X226450000Y-87665000D03*
X231900000Y-97735000D03*
X231900000Y-96765000D03*
D21*
X228820000Y-90700000D03*
X227850000Y-90700000D03*
D15*
X227800000Y-88465000D03*
X227800000Y-89435000D03*
D36*
X223925000Y-90950000D03*
X219775000Y-90950000D03*
D13*
X226450000Y-90735000D03*
X226450000Y-89765000D03*
D15*
X230500000Y-89865000D03*
X230500000Y-90835000D03*
X231900000Y-92915000D03*
X231900000Y-93885000D03*
D37*
X229250000Y-94670000D03*
X227550000Y-94670000D03*
X229250000Y-96030000D03*
X227550000Y-96030000D03*
D38*
X226495000Y-97912500D03*
X227765000Y-97912500D03*
X229035000Y-97912500D03*
X230305000Y-97912500D03*
X230305000Y-92787500D03*
X229035000Y-92787500D03*
X227765000Y-92787500D03*
X226495000Y-92787500D03*
D15*
X225600000Y-138665000D03*
X225600000Y-139635000D03*
D13*
X229000000Y-89435000D03*
X229000000Y-88465000D03*
D15*
X231750000Y-89865000D03*
X231750000Y-90835000D03*
D21*
X116185000Y-78700000D03*
X115215000Y-78700000D03*
X116185000Y-80100000D03*
X115215000Y-80100000D03*
D22*
X150400000Y-137900000D03*
X149900000Y-137900000D03*
D23*
X149400000Y-137900000D03*
D22*
X148900000Y-137900000D03*
X148400000Y-137900000D03*
X148400000Y-138670000D03*
X148900000Y-138670000D03*
D23*
X149400000Y-138670000D03*
D22*
X149900000Y-138670000D03*
X150400000Y-138670000D03*
X195825000Y-136650000D03*
X196325000Y-136650000D03*
D23*
X196825000Y-136650000D03*
D22*
X197325000Y-136650000D03*
X197825000Y-136650000D03*
X197825000Y-135880000D03*
X197325000Y-135880000D03*
D23*
X196825000Y-135880000D03*
D22*
X196325000Y-135880000D03*
X195825000Y-135880000D03*
D39*
X194975000Y-79000000D03*
X197025000Y-79000000D03*
D27*
X201650000Y-84350000D03*
X201650000Y-83700000D03*
X201650000Y-83050000D03*
X199750000Y-83050000D03*
X199750000Y-84350000D03*
D39*
X194975000Y-81500000D03*
X197025000Y-81500000D03*
D40*
X104900000Y-113950000D03*
X104900000Y-115850000D03*
X106900000Y-114900000D03*
D41*
X111475000Y-122155000D03*
X111475000Y-120885000D03*
X111475000Y-119615000D03*
X111475000Y-118345000D03*
X106525000Y-118345000D03*
X106525000Y-119615000D03*
X106525000Y-120885000D03*
X106525000Y-122155000D03*
D42*
X114850000Y-120550000D03*
X114850000Y-123050000D03*
D43*
X203460000Y-158075000D03*
X202360000Y-158075000D03*
X201260000Y-158075000D03*
X200160000Y-158075000D03*
X199060000Y-158075000D03*
X197960000Y-158075000D03*
X196860000Y-158075000D03*
X195760000Y-158075000D03*
D44*
X205250000Y-145610000D03*
D45*
X200985000Y-145535000D03*
D46*
X194680000Y-157575000D03*
D47*
X194600000Y-146810000D03*
D48*
X207340000Y-158060000D03*
D47*
X207560000Y-146810000D03*
D19*
X103250000Y-76850000D03*
X103750000Y-76850000D03*
X104250000Y-76850000D03*
X104750000Y-76850000D03*
X105250000Y-76850000D03*
X105750000Y-76850000D03*
X106250000Y-76850000D03*
X106750000Y-76850000D03*
X107250000Y-76850000D03*
X107750000Y-76850000D03*
X108250000Y-76850000D03*
X108750000Y-76850000D03*
X109250000Y-76850000D03*
X109750000Y-76850000D03*
X110250000Y-76850000D03*
X110750000Y-76850000D03*
X111250000Y-76850000D03*
X111750000Y-76850000D03*
X112250000Y-76850000D03*
X112750000Y-76850000D03*
X113250000Y-76850000D03*
X113750000Y-76850000D03*
D20*
X101350000Y-73600000D03*
X115650000Y-73600000D03*
D49*
X85850000Y-98750000D03*
X85850000Y-98250000D03*
X85850000Y-97750000D03*
X85850000Y-97250000D03*
X85850000Y-96750000D03*
X85850000Y-96250000D03*
X85850000Y-95750000D03*
X85850000Y-95250000D03*
X85850000Y-94750000D03*
X85850000Y-94250000D03*
X85850000Y-93750000D03*
X85850000Y-93250000D03*
X85850000Y-92750000D03*
X85850000Y-92250000D03*
X85850000Y-91750000D03*
X85850000Y-91250000D03*
X85850000Y-90750000D03*
X85850000Y-90250000D03*
X85850000Y-89750000D03*
X85850000Y-89250000D03*
X85850000Y-88750000D03*
X85850000Y-88250000D03*
D50*
X82600000Y-100650000D03*
X82600000Y-86350000D03*
D51*
X232175000Y-143000000D03*
D52*
X231935000Y-142230000D03*
D51*
X233475000Y-143000000D03*
D52*
X233065000Y-141520000D03*
X233065000Y-142230000D03*
D51*
X232825000Y-143000000D03*
X231525000Y-143000000D03*
D52*
X231935000Y-141520000D03*
D51*
X233475000Y-140000000D03*
X232825000Y-140000000D03*
X232175000Y-140000000D03*
X231525000Y-140000000D03*
D13*
X195205000Y-134097500D03*
X195205000Y-133127500D03*
D14*
X227587500Y-100050000D03*
X225712500Y-100050000D03*
D17*
X229262500Y-100050000D03*
X231137500Y-100050000D03*
X229262500Y-101900000D03*
X231137500Y-101900000D03*
D14*
X227587500Y-101900000D03*
X225712500Y-101900000D03*
D17*
X229262500Y-103750000D03*
X231137500Y-103750000D03*
D14*
X227587500Y-103750000D03*
X225712500Y-103750000D03*
D17*
X233462500Y-138200000D03*
X235337500Y-138200000D03*
D18*
X179725000Y-126062502D03*
X179725000Y-127937502D03*
D13*
X173650000Y-126152500D03*
X173650000Y-125182500D03*
D53*
X191212500Y-137400000D03*
X184987500Y-137400000D03*
D54*
X209375000Y-123000000D03*
X207225000Y-123000000D03*
D15*
X171129374Y-139896469D03*
X171129374Y-140866469D03*
D13*
X169150000Y-127285000D03*
X169150000Y-126315000D03*
D16*
X179302500Y-131662500D03*
X180272500Y-131662500D03*
D14*
X214162500Y-124075000D03*
X212287500Y-124075000D03*
D13*
X174325000Y-140860000D03*
X174325000Y-139890000D03*
D55*
X186155000Y-133300000D03*
X186155000Y-134300000D03*
X187445000Y-133800000D03*
D16*
X179302500Y-130362500D03*
X180272500Y-130362500D03*
D56*
X175375000Y-134100000D03*
X175375000Y-130575000D03*
X173025000Y-134100000D03*
X171850000Y-131750000D03*
X173025000Y-132925000D03*
X174200000Y-134100000D03*
X173025000Y-131750000D03*
X174200000Y-132925000D03*
X175375000Y-131750000D03*
X171850000Y-134100000D03*
X171850000Y-130575000D03*
X175375000Y-132925000D03*
X174200000Y-131750000D03*
X174200000Y-130575000D03*
X171850000Y-132925000D03*
X173025000Y-130575000D03*
D57*
X177550000Y-135537500D03*
X177550000Y-135137500D03*
X177550000Y-134737500D03*
X177550000Y-134337500D03*
X177550000Y-133937500D03*
X177550000Y-133537500D03*
X177550000Y-133137500D03*
X177550000Y-132737500D03*
X177550000Y-132337500D03*
X177550000Y-131937500D03*
X177550000Y-131537500D03*
X177550000Y-131137500D03*
X177550000Y-130737500D03*
X177550000Y-130337500D03*
X177550000Y-129937500D03*
X177550000Y-129537500D03*
X177550000Y-129137500D03*
D58*
X176812500Y-128400000D03*
X176412500Y-128400000D03*
X176012500Y-128400000D03*
X175612500Y-128400000D03*
X175212500Y-128400000D03*
X174812500Y-128400000D03*
X174412500Y-128400000D03*
X174012500Y-128400000D03*
X173612500Y-128400000D03*
X173212500Y-128400000D03*
X172812500Y-128400000D03*
X172412500Y-128400000D03*
X172012500Y-128400000D03*
X171612500Y-128400000D03*
X171212500Y-128400000D03*
X170812500Y-128400000D03*
X170412500Y-128400000D03*
D57*
X169675000Y-129137500D03*
X169675000Y-129537500D03*
X169675000Y-129937500D03*
X169675000Y-130337500D03*
X169675000Y-130737500D03*
X169675000Y-131137500D03*
X169675000Y-131537500D03*
X169675000Y-131937500D03*
X169675000Y-132337500D03*
X169675000Y-132737500D03*
X169675000Y-133137500D03*
X169675000Y-133537500D03*
X169675000Y-133937500D03*
X169675000Y-134337500D03*
X169675000Y-134737500D03*
X169675000Y-135137500D03*
X169675000Y-135537500D03*
D58*
X170412500Y-136275000D03*
X170812500Y-136275000D03*
X171212500Y-136275000D03*
X171612500Y-136275000D03*
X172012500Y-136275000D03*
X172412500Y-136275000D03*
X172812500Y-136275000D03*
X173212500Y-136275000D03*
X173612500Y-136275000D03*
X174012500Y-136275000D03*
X174412500Y-136275000D03*
X174812500Y-136275000D03*
X175212500Y-136275000D03*
X175612500Y-136275000D03*
X176012500Y-136275000D03*
X176412500Y-136275000D03*
X176812500Y-136275000D03*
D59*
X204700000Y-89112500D03*
X204700000Y-82887500D03*
D13*
X167925000Y-132885000D03*
X167925000Y-131915000D03*
D16*
X179277500Y-134087500D03*
X180247500Y-134087500D03*
D14*
X192600001Y-129768751D03*
X190725001Y-129768751D03*
D60*
X183600000Y-127962502D03*
X183600000Y-126087502D03*
D15*
X168312500Y-135327500D03*
X168312500Y-136297500D03*
D14*
X166000000Y-142275000D03*
X164125000Y-142275000D03*
D16*
X166847500Y-128952500D03*
X167817500Y-128952500D03*
D13*
X166800000Y-132885000D03*
X166800000Y-131915000D03*
D61*
X193150000Y-131825000D03*
X192200000Y-131825000D03*
X191250000Y-131825000D03*
X191250000Y-134025000D03*
X192200000Y-134025000D03*
X193150000Y-134025000D03*
D16*
X207940000Y-118600000D03*
X208910000Y-118600000D03*
D13*
X175450000Y-140860000D03*
X175450000Y-139890000D03*
D17*
X207562500Y-120500000D03*
X209437500Y-120500000D03*
D15*
X202700000Y-130450000D03*
X202700000Y-131420000D03*
D21*
X203285000Y-124200000D03*
X202315000Y-124200000D03*
D25*
X189367500Y-127942500D03*
X187792500Y-127942500D03*
D62*
X211615000Y-119825000D03*
X211615000Y-120775000D03*
X211615000Y-121725000D03*
X214235000Y-121725000D03*
X214235000Y-119825000D03*
D63*
X181650000Y-127612502D03*
X181650000Y-126037502D03*
D18*
X181300000Y-135862500D03*
X181300000Y-137737500D03*
D21*
X214235000Y-117875000D03*
X213265000Y-117875000D03*
D15*
X202650000Y-133500000D03*
X202650000Y-134470000D03*
D21*
X169710000Y-138425000D03*
X168740000Y-138425000D03*
X217060000Y-117875000D03*
X216090000Y-117875000D03*
D15*
X167162500Y-135328964D03*
X167162500Y-136298964D03*
D18*
X193700000Y-139262500D03*
X193700000Y-141137500D03*
D16*
X186200000Y-131700000D03*
X187170000Y-131700000D03*
D60*
X186040000Y-127927500D03*
X186040000Y-126052500D03*
D21*
X164935000Y-136737500D03*
X163965000Y-136737500D03*
D16*
X209290000Y-116725000D03*
X210260000Y-116725000D03*
D21*
X217110000Y-119675000D03*
X216140000Y-119675000D03*
D13*
X176250000Y-126170000D03*
X176250000Y-125200000D03*
D16*
X164675526Y-131139649D03*
X165645526Y-131139649D03*
D13*
X189900000Y-132745000D03*
X189900000Y-131775000D03*
D15*
X179312500Y-135402500D03*
X179312500Y-136372500D03*
D16*
X106315000Y-124100000D03*
X107285000Y-124100000D03*
X166890000Y-130375000D03*
X167860000Y-130375000D03*
X211740000Y-116725000D03*
X212710000Y-116725000D03*
D21*
X171234474Y-125927131D03*
X170264474Y-125927131D03*
D15*
X176550000Y-139890000D03*
X176550000Y-140860000D03*
D13*
X174775000Y-126152500D03*
X174775000Y-125182500D03*
D14*
X165085000Y-140007500D03*
X163210000Y-140007500D03*
D15*
X178625000Y-139365000D03*
X178625000Y-140335000D03*
D64*
X163650001Y-132837499D03*
X163650001Y-135037499D03*
X165250001Y-135037499D03*
X165250001Y-132837499D03*
D13*
X167875000Y-140810000D03*
X167875000Y-139840000D03*
D15*
X173200000Y-139890000D03*
X173200000Y-140860000D03*
D13*
X166725000Y-140810000D03*
X166725000Y-139840000D03*
M02*
